# xmcd
#
# Track frame offsets:
# 150
# 23345
# 40610
# 52853
# 72582
# 88392
# 105888
# 119431
# 132799
# 148883
#
# Disc length: 2272 seconds
#
#
# Revision: 0
# Processed by: cddbd v1.5.1PL0 Copyright (c) Steve Scherf et al.
# Submitted via: FreeRIP 2.60 
#
DISCID=8108de0a
DTITLE=The Lamont Cranston Band - Shakedown
DYEAR=1981
DGENRE=Blues
TTITLE0=Two Trains Runnin'
TTITLE1=Upper Missisippi Shakedown
TTITLE2=Seven
TTITLE3=Moonlight On The Broken Glass
TTITLE4=Streets Around Here
TTITLE5=I'm So Shy
TTITLE6=So Much
TTITLE7=Party Train
TTITLE8=Cold, Broke and Hungry
TTITLE9=What Love Will Do
EXTD=Waterhouse Records\nRecorded From LP\nPurchased at Concert
EXTT0=
EXTT1=
EXTT2=
EXTT3=
EXTT4=
EXTT5=
EXTT6=
EXTT7=
EXTT8=
EXTT9=
PLAYORDER=
